<?xml version="1.0" encoding="UTF-8" standalone="no"?>
<!-- Created with Inkscape (http://www.inkscape.org/) -->

<svg

   xmlns:svg="http://www.w3.org/2000/svg"
   xmlns="http://www.w3.org/2000/svg"
   xmlns:xlink="http://www.w3.org/1999/xlink"

   version="1.1"

   width="200"
   height="200"
   viewBox="0 0 200 200"
>


  <path
     style="fill:#673ab7;fill-opacity:1;stroke:#000000;stroke-width:0.24479803;stroke-opacity:1"
     d="m 199.53488,199.97552 c 0,-0.1612 -6.8434,-0.2448 -20.04061,-0.2448 h -20.04062 l -0.12422,-7.03794 c -0.0957,-5.42345 -0.21036,-7.29065 -0.49967,-8.13954 -0.29567,-0.86755 -0.40067,-2.79184 -0.49421,-9.05752 -0.095,-6.3645 -0.19697,-8.20078 -0.5097,-9.17993 -0.27402,-0.85795 -0.39172,-2.17089 -0.39358,-4.39028 -0.002,-2.58899 -0.0871,-3.34775 -0.46603,-4.16156 -0.25486,-0.54741 -0.52831,-1.60116 -0.60766,-2.34167 -0.0793,-0.74052 -0.29368,-1.45655 -0.47629,-1.59119 -0.18261,-0.13464 -0.39555,-0.72153 -0.47319,-1.30419 -0.0776,-0.58266 -0.30348,-1.24362 -0.50187,-1.46879 -0.19838,-0.22517 -0.43512,-0.7598 -0.52608,-1.18807 -0.0909,-0.42828 -0.31645,-0.90406 -0.5011,-1.05731 -0.18465,-0.15325 -0.4065,-0.60084 -0.49299,-0.99465 -0.0865,-0.39381 -0.30204,-0.7993 -0.47899,-0.90108 -0.17694,-0.10178 -0.50176,-0.57061 -0.72181,-1.04185 -0.65492,-1.4025 -1.06291,-2.02859 -1.4706,-2.25675 -0.21185,-0.11855 -0.38518,-0.35825 -0.38518,-0.53265 0,-0.1744 -0.22032,-0.51647 -0.4896,-0.76017 -0.26928,-0.24369 -0.48959,-0.57138 -0.48959,-0.72819 0,-0.15681 -0.2754,-0.52456 -0.612,-0.81723 -0.3366,-0.29267 -0.612,-0.64301 -0.612,-0.77854 0,-0.13553 -0.16523,-0.24642 -0.36719,-0.24642 -0.20196,0 -0.37112,-0.1377 -0.37591,-0.306 -0.008,-0.28451 -0.60136,-0.86837 -3.78566,-3.72567 -0.67319,-0.60406 -1.39027,-1.10072 -1.5935,-1.10369 -0.20323,-0.003 -0.5071,-0.22572 -0.67527,-0.49499 -0.16817,-0.26928 -0.41498,-0.4896 -0.54848,-0.4896 -0.1335,0 -0.46304,-0.22032 -0.73232,-0.4896 -0.26928,-0.26927 -0.70604,-0.48959 -0.97058,-0.48959 -0.26454,0 -0.59889,-0.22032 -0.74301,-0.4896 -0.15365,-0.2871 -0.51256,-0.48959 -0.8678,-0.48959 -0.33318,0 -0.79442,-0.22032 -1.02498,-0.4896 -0.23057,-0.26928 -0.65527,-0.4896 -0.94378,-0.4896 -0.28852,0 -0.80467,-0.22031 -1.147,-0.48959 -0.34233,-0.26928 -0.86745,-0.4896 -1.16691,-0.4896 -0.29947,0 -0.88797,-0.21036 -1.30778,-0.46747 -0.41981,-0.25711 -1.39341,-0.54479 -2.16355,-0.63928 -0.77015,-0.0945 -1.52721,-0.32478 -1.68236,-0.51173 -0.15516,-0.18694 -0.59909,-0.3399 -0.98652,-0.3399 -0.38743,0 -0.70442,-0.0494 -0.70442,-0.10979 0,-0.2106 1.15943,-1.35902 1.37446,-1.3614 0.1192,-0.001 0.60228,-0.44088 1.07352,-0.97679 0.47124,-0.53591 0.98707,-0.97547 1.14629,-0.97679 0.15923,-0.001 0.35943,-0.22272 0.4449,-0.492 0.0855,-0.26928 0.30578,-0.4896 0.48959,-0.4896 0.18381,0 0.40413,-0.22032 0.4896,-0.48959 0.0855,-0.26928 0.31321,-0.4896 0.50609,-0.4896 0.19289,0 0.3507,-0.0926 0.3507,-0.20586 0,-0.11322 0.46818,-0.71941 1.04039,-1.34708 1.49007,-1.63449 2.14199,-2.51542 2.14199,-2.89445 0,-0.18194 0.22032,-0.46839 0.48959,-0.63656 0.26928,-0.16816 0.4896,-0.41498 0.4896,-0.54848 0,-0.1335 0.22032,-0.46304 0.4896,-0.73232 0.26927,-0.26928 0.48959,-0.70604 0.48959,-0.97058 0,-0.26454 0.22032,-0.59889 0.4896,-0.743 0.26928,-0.14412 0.48959,-0.46362 0.48959,-0.71 0,-0.24638 0.20597,-0.71068 0.4577,-1.03178 0.25173,-0.32109 0.53386,-0.93262 0.62695,-1.35895 0.0931,-0.42633 0.3118,-0.82984 0.48601,-0.89669 0.17422,-0.0669 0.38106,-0.51782 0.45965,-1.00214 0.0786,-0.48433 0.30156,-1.03925 0.49547,-1.23317 0.19392,-0.19391 0.43178,-0.88128 0.52859,-1.52748 0.0968,-0.64621 0.28333,-1.24143 0.41451,-1.32271 0.30585,-0.18952 0.67932,-1.79518 0.68685,-2.95299 0.003,-0.49367 0.12999,-0.93898 0.28173,-0.98956 0.50675,-0.16891 0.67412,-2.465751 0.67412,-9.251156 0,-6.64529 -0.15808,-8.956478 -0.63378,-9.26625 -0.13386,-0.08716 -0.31867,-0.929589 -0.41071,-1.872061 -0.0965,-0.988083 -0.30963,-1.821655 -0.50342,-1.96884 -0.18484,-0.140389 -0.41339,-0.770861 -0.5079,-1.40105 -0.0945,-0.630188 -0.38007,-1.385912 -0.6346,-1.679388 -0.25453,-0.293476 -0.46278,-0.850671 -0.46278,-1.23821 0,-0.394723 -0.15857,-0.765472 -0.36054,-0.842975 -0.1983,-0.07609 -0.42952,-0.506071 -0.51384,-0.955505 -0.0843,-0.449437 -0.36271,-1.006669 -0.61865,-1.238296 -0.25595,-0.231626 -0.46536,-0.675589 -0.46536,-0.986581 0,-0.314903 -0.21693,-0.681542 -0.48959,-0.827466 -0.26928,-0.144113 -0.4896,-0.478465 -0.4896,-0.743006 0,-0.264541 -0.22032,-0.701302 -0.48959,-0.97058 -0.26928,-0.269278 -0.4896,-0.598823 -0.4896,-0.732321 0,-0.133498 -0.22032,-0.380313 -0.4896,-0.54848 -0.26927,-0.168166 -0.48959,-0.454617 -0.48959,-0.636553 0,-0.379031 -0.65192,-1.259963 -2.14199,-2.89445 -0.57221,-0.627677 -1.04039,-1.233868 -1.04039,-1.347087 0,-0.113222 -0.15781,-0.205858 -0.3507,-0.205858 -0.19288,0 -0.42062,-0.220319 -0.50609,-0.489596 -0.0855,-0.269278 -0.30579,-0.489596 -0.4896,-0.489596 -0.18381,0 -0.40413,-0.220319 -0.48959,-0.489597 -0.0855,-0.269277 -0.28567,-0.490678 -0.4449,-0.492 -0.15922,-0.0013 -0.67505,-0.440876 -1.14629,-0.976788 -0.47124,-0.535912 -0.99062,-0.975466 -1.15418,-0.976788 -0.16356,-0.0012 -0.4113,-0.215261 -0.55053,-0.475422 -0.13924,-0.260159 -0.50113,-0.549516 -0.80421,-0.643014 -0.53704,-0.165674 -0.68236,-0.270355 -1.8439,-1.328235 -0.30714,-0.279735 -0.88548,-0.574017 -1.28519,-0.653958 -0.3997,-0.07994 -0.72674,-0.29472 -0.72674,-0.477283 0,-0.182563 -0.29925,-0.40704 -0.66499,-0.498835 -0.36575,-0.0918 -0.88224,-0.369295 -1.14775,-0.616661 -0.26552,-0.247366 -0.72031,-0.449755 -1.01065,-0.449755 -0.29035,0 -0.72729,-0.220318 -0.97098,-0.489596 -0.26288,-0.290485 -0.75397,-0.489596 -1.20753,-0.489596 -0.46151,0 -0.93057,-0.194017 -1.18365,-0.489596 -0.26549,-0.310076 -0.72214,-0.489596 -1.24538,-0.489596 -0.45551,0 -1.10543,-0.219662 -1.4486,-0.489596 -0.41735,-0.328292 -0.99309,-0.489596 -1.74748,-0.489596 -0.65738,0 -1.50481,-0.203525 -2.03855,-0.489596 -0.85899,-0.460392 -1.38117,-0.489597 -8.75427,-0.489597 -7.373095,0 -7.895273,0.0292 -8.754265,0.489597 -0.533745,0.286071 -1.381172,0.489596 -2.038548,0.489596 -0.754394,0 -1.330132,0.161304 -1.747486,0.489596 -0.343165,0.269934 -0.993092,0.489596 -1.448597,0.489596 -0.523242,0 -0.979885,0.17952 -1.245381,0.489596 -0.253082,0.295579 -0.72214,0.489596 -1.183652,0.489596 -0.453557,0 -0.944644,0.199111 -1.207528,0.489596 -0.243694,0.269278 -0.680632,0.489596 -0.970974,0.489596 -0.290341,0 -0.745134,0.202389 -1.010651,0.449755 -0.265516,0.247366 -0.782003,0.524864 -1.147751,0.616661 -0.365745,0.09179 -0.664994,0.316272 -0.664994,0.498835 0,0.182563 -0.327035,0.397342 -0.726744,0.477283 -0.399709,0.07994 -0.978044,0.374223 -1.28519,0.653958 -1.161537,1.05788 -1.306859,1.162561 -1.843894,1.328235 -0.303082,0.0935 -0.664975,0.382855 -0.804208,0.643014 -0.139232,0.260161 -0.386972,0.4741 -0.550534,0.475422 -0.163562,0.0012 -0.682943,0.440876 -1.154179,0.976788 -0.471236,0.535912 -0.98707,0.975467 -1.146294,0.976788 -0.159226,0.0012 -0.359427,0.222723 -0.444893,0.492 -0.08547,0.269278 -0.305785,0.489597 -0.489596,0.489597 -0.183812,0 -0.40413,0.220318 -0.489596,0.489596 -0.08547,0.269277 -0.313207,0.489596 -0.506093,0.489596 -0.192884,0 -0.3507,0.09264 -0.3507,0.205858 0,0.113219 -0.468177,0.71941 -1.040392,1.347087 -1.490064,1.634487 -2.141983,2.515419 -2.141983,2.89445 0,0.181936 -0.220318,0.468387 -0.489596,0.636553 -0.269278,0.168167 -0.489596,0.414982 -0.489596,0.54848 0,0.133498 -0.220318,0.463043 -0.489596,0.732321 -0.269278,0.269278 -0.489596,0.706039 -0.489596,0.97058 0,0.264541 -0.220318,0.598893 -0.489596,0.743006 -0.272664,0.145924 -0.489596,0.512563 -0.489596,0.827466 0,0.310992 -0.20941,0.754955 -0.465354,0.986581 -0.255946,0.231627 -0.53434,0.788859 -0.618654,1.238296 -0.08432,0.449434 -0.315542,0.879412 -0.513838,0.955505 -0.201971,0.0775 -0.360539,0.448252 -0.360539,0.842975 0,0.387539 -0.208252,0.944734 -0.462781,1.23821 -0.254531,0.293476 -0.540102,1.0492 -0.634604,1.679388 -0.0945,0.630189 -0.323058,1.260661 -0.5079,1.40105 -0.193789,0.147185 -0.406928,0.980757 -0.503417,1.96884 -0.09204,0.942472 -0.276855,1.784901 -0.410705,1.872061 -0.475704,0.309772 -0.633782,2.62096 -0.633782,9.26625 0,6.785405 0.167366,9.082246 0.674115,9.251156 0.15174,0.0506 0.278521,0.49589 0.281733,0.98956 0.0075,1.15781 0.381001,2.76347 0.686849,2.95299 0.131175,0.0813 0.317706,0.6765 0.414514,1.32271 0.09681,0.6462 0.334669,1.33357 0.528583,1.52748 0.193912,0.19392 0.416871,0.74884 0.495469,1.23317 0.07859,0.48432 0.285437,0.93529 0.459652,1.00214 0.174213,0.0669 0.392918,0.47036 0.48601,0.89669 0.09309,0.42633 0.375221,1.03786 0.626955,1.35895 0.25173,0.3211 0.457694,0.7854 0.457694,1.03178 0,0.24638 0.220318,0.56588 0.489596,0.71 0.269278,0.14411 0.489596,0.47846 0.489596,0.743 0,0.26454 0.220318,0.7013 0.489596,0.97058 0.269278,0.26928 0.489596,0.59882 0.489596,0.73232 0,0.1335 0.220318,0.38032 0.489596,0.54848 0.269278,0.16817 0.489596,0.45462 0.489596,0.63656 0,0.37903 0.651919,1.25996 2.141983,2.89445 0.572215,0.62767 1.040392,1.23386 1.040392,1.34708 0,0.11322 0.157816,0.20586 0.3507,0.20586 0.192886,0 0.420626,0.22032 0.506093,0.4896 0.08547,0.26927 0.305784,0.48959 0.489596,0.48959 0.183811,0 0.40413,0.22032 0.489596,0.4896 0.08547,0.26928 0.285667,0.49068 0.444893,0.492 0.159224,0.001 0.675058,0.44088 1.146294,0.97679 0.471236,0.53591 0.954321,0.97546 1.07352,0.97679 0.215026,0.002 1.374461,1.1508 1.374461,1.3614 0,0.0604 -0.316989,0.10979 -0.704421,0.10979 -0.38743,0 -0.831361,0.15296 -0.986517,0.3399 -0.155153,0.18695 -0.912215,0.41723 -1.68236,0.51173 -0.770144,0.0945 -1.743745,0.38217 -2.163552,0.63928 -0.419809,0.25711 -1.008308,0.46747 -1.307777,0.46747 -0.299469,0 -0.82458,0.22032 -1.166911,0.4896 -0.34233,0.26928 -0.858479,0.48959 -1.146998,0.48959 -0.288517,0 -0.71322,0.22032 -0.943783,0.4896 -0.230563,0.26928 -0.691806,0.4896 -1.024984,0.4896 -0.355238,0 -0.714147,0.20249 -0.867801,0.48959 -0.144113,0.26928 -0.478465,0.4896 -0.743006,0.4896 -0.264541,0
-0.701303,0.22032 -0.970581,0.48959 -0.269278,0.26928 -0.598822,0.4896 -0.73232,0.4896 -0.133499,0 -0.380314,0.22032 -0.54848,0.4896 -0.168167,0.26927 -0.472039,0.49202 -0.675271,0.49499 -0.203231,0.003 -0.920306,0.49963 -1.5935,1.10369 -3.184304,2.8573 -3.777567,3.44116 -3.785662,3.72567 -0.0048,0.1683 -0.173947,0.306 -0.375905,0.306 -0.201958,0 -0.367197,0.11089 -0.367197,0.24642 0,0.13553 -0.275398,0.48587 -0.611995,0.77854 -0.336597,0.29267 -0.611995,0.66042 -0.611995,0.81723 0,0.15681 -0.220318,0.4845 -0.489596,0.72819 -0.269278,0.2437 -0.489596,0.58577 -0.489596,0.76017 0,0.1744 -0.173332,0.4141 -0.38518,0.53265 -0.407692,0.22816 -0.815685,0.85425 -1.470603,2.25675 -0.220051,0.47124 -0.544866,0.94007 -0.721813,1.04185 -0.176945,0.10178 -0.39249,0.50727 -0.478985,0.90108 -0.0865,0.39381 -0.308342,0.8414 -0.492991,0.99465 -0.184649,0.15325 -0.410147,0.62903 -0.501104,1.05731 -0.09096,0.42827 -0.327694,0.9629 -0.526078,1.18807 -0.198385,0.22517 -0.424226,0.88613 -0.501868,1.46879 -0.07764,0.58266 -0.293995,1.172 -0.480784,1.30963 -0.188942,0.13922 -0.402954,0.89945 -0.482386,1.71359 -0.07912,0.81098 -0.319205,1.66562 -0.538536,1.91708 -0.314145,0.36016 -0.426265,1.2689 -0.543663,4.40636 -0.08134,2.17395 -0.285189,4.33819 -0.452991,4.80943 -0.209413,0.58809 -0.344725,3.42862 -0.431469,9.05752 -0.07323,4.7519 -0.226675,8.32536 -0.364874,8.49706 -0.387606,0.48159 -0.666125,4.72501 -0.675471,10.29119 l -0.0087,5.20196 H 21.567005 0.51467148 L 0.45287554,100.03672 0.39107961,0.34271726 0.33017873,100.03672 c -0.0404761,66.25887 -0.14300066,99.694 -0.30569893,99.694 -0.16279816,0 -0.24479804,-33.41123 -0.24479804,-99.744108 V 0.24250333 L 0.5752754,0.10111403 C 1.0128519,0.02334989 45.958306,-0.00918152 100.45406,0.02882196 l 99.0832,0.06909726 -0.002,99.67918978 c -0.001,66.350791 0.0803,99.729901 0.24361,99.830851 0.31722,0.19605 0.31762,0.61236 4.9e-4,0.61236 -0.13464,0 -0.2448,-0.11016 -0.2448,-0.2448 z"
     id="path4530"
     inkscape:connector-curvature="0" />
</svg>
