<?xml version="1.0" encoding="UTF-8" standalone="no"?>
<svg
   xmlns:dc="http://purl.org/dc/elements/1.1/"
   xmlns:cc="http://creativecommons.org/ns#"
   xmlns:rdf="http://www.w3.org/1999/02/22-rdf-syntax-ns#"
   xmlns:svg="http://www.w3.org/2000/svg"
   xmlns="http://www.w3.org/2000/svg"
   xmlns:sodipodi="http://sodipodi.sourceforge.net/DTD/sodipodi-0.dtd"
   xmlns:inkscape="http://www.inkscape.org/namespaces/inkscape"
   viewBox="0 0 576 512"
   version="1.1"
   id="svg4"
   sodipodi:docname="iglooColor.svg"
   inkscape:version="0.92.1 r15371">
  <metadata
     id="metadata10">
    <rdf:RDF>
      <cc:Work
         rdf:about="">
        <dc:format>image/svg+xml</dc:format>
        <dc:type
           rdf:resource="http://purl.org/dc/dcmitype/StillImage" />
        <dc:title></dc:title>
      </cc:Work>
    </rdf:RDF>
  </metadata>
  <defs
     id="defs8" />
  <sodipodi:namedview
     pagecolor="#ffffff"
     bordercolor="#666666"
     borderopacity="1"
     objecttolerance="10"
     gridtolerance="10"
     guidetolerance="10"
     inkscape:pageopacity="0"
     inkscape:pageshadow="2"
     inkscape:window-width="1643"
     inkscape:window-height="991"
     id="namedview6"
     showgrid="false"
     inkscape:zoom="0.4609375"
     inkscape:cx="42.847458"
     inkscape:cy="256"
     inkscape:window-x="37"
     inkscape:window-y="30"
     inkscape:window-maximized="1"
     inkscape:current-layer="svg4" />
  <path
     d="M320 33.9c-10.5-1.2-21.2-1.9-32-1.9-99.8 0-187.8 50.8-239.4 128H320V33.9zM96 192H30.3C11.1 230.6 0 274 0 320h96V192zM352 39.4V160h175.4C487.2 99.9 424.8 55.9 352 39.4zM480 320h96c0-46-11.1-89.4-30.3-128H480v128zm-64 64v96h128c17.7 0 32-14.3 32-32v-96H411.5c2.6 10.3 4.5 20.9 4.5 32zm32-192H128v128h49.8c22.2-38.1 63-64 110.2-64s88 25.9 110.2 64H448V192zM0 448c0 17.7 14.3 32 32 32h128v-96c0-11.1 1.9-21.7 4.5-32H0v96zm288-160c-53 0-96 43-96 96v96h192v-96c0-53-43-96-96-96z"
     id="path2"
     style="fill:#673ab7;fill-opacity:1" />
</svg>
